<!DOCTYPE svg PUBLIC "-//W3C//DTD SVG 1.1//EN" "http://www.w3.org/Graphics/SVG/1.1/DTD/svg11.dtd">
<!-- Uploaded to: SVG Repo, www.svgrepo.com, Transformed by: SVG Repo Mixer Tools -->
<svg fill="#434343" version="1.1" id="Capa_1" xmlns="http://www.w3.org/2000/svg" xmlns:xlink="http://www.w3.org/1999/xlink" width="800px" height="800px" viewBox="0 0 45.732 45.732" xml:space="preserve" stroke="#434343">
<g id="SVGRepo_bgCarrier" stroke-width="0"/>
<g id="SVGRepo_tracerCarrier" stroke-linecap="round" stroke-linejoin="round"/>
<g id="SVGRepo_iconCarrier"> <g> <g> <path d="M38.742,5.785h-0.447V5.137c0-0.851-0.671-1.556-1.521-1.556h-3.55c-0.849,0-1.541,0.705-1.541,1.556v0.648H14.05V5.137 c0-0.851-0.722-1.556-1.571-1.556h-3.55c-0.85,0-1.56,0.705-1.56,1.556v0.648H6.962C3.114,5.785,0,8.934,0,12.782v22.364 c0,3.848,3.114,7.005,6.962,7.005h31.78c3.848,0,6.99-3.157,6.99-7.005V12.783C45.732,8.934,42.59,5.785,38.742,5.785z M39.602,34.454c0,1-0.842,1.842-1.842,1.842H7.944c-1,0-1.814-0.842-1.814-1.842V13.473c0-1,0.815-1.834,1.814-1.834H37.76 c1,0,1.842,0.834,1.842,1.834V34.454z"/> <path d="M22.509,15.152h-3.763c-0.844,0-1.528,0.684-1.528,1.528v3.763c0,0.844,0.684,1.528,1.528,1.528h3.762 c0.843,0,1.528-0.685,1.528-1.528V16.68C24.037,15.836,23.354,15.152,22.509,15.152z"/> <path d="M34.217,15.152h-3.762c-0.844,0-1.527,0.684-1.527,1.528v3.763c0,0.844,0.685,1.528,1.527,1.528h3.762 c0.844,0,1.528-0.685,1.528-1.528V16.68C35.745,15.836,35.061,15.152,34.217,15.152z"/> <path d="M34.217,25.827h-3.762c-0.844,0-1.527,0.684-1.527,1.528v3.763c0,0.843,0.685,1.527,1.527,1.527h3.762 c0.844,0,1.528-0.685,1.528-1.527v-3.762C35.745,26.513,35.061,25.827,34.217,25.827z"/> </g> </g> </g>
</svg>